# xmcd
#
# Track frame offsets: 
#        150
#        22387
#        44950
#        62725
#        80025
#        100425
#        122750
#        147580
#        165920
#
# Disc length: 2600 seconds
#
# Revision: 2
# Processed by: cddbd v1.4PL0 Copyright (c) Steve Scherf et al.
# Submitted via: ExactAudioCopy v0.90a11
#
DISCID=890a2609
DTITLE=Albert Collins, Robert Cray and Johnny Copeland - Showdown! (MF
DTITLE=SL)
DYEAR=1900
DGENRE=
TTITLE0=T-Bone Shuffle
TTITLE1=The Moon Is Full
TTITLE2=Lion's Den
TTITLE3=She's Into Something
TTITLE4=Bring Your Fine Self Home
TTITLE5=Black Cat Bone
TTITLE6=The Dream
TTITLE7=Albert's Alley
TTITLE8=Blackjack
EXTD=
EXTT0=
EXTT1=
EXTT2=
EXTT3=
EXTT4=
EXTT5=
EXTT6=
EXTT7=
EXTT8=
PLAYORDER=
